<mxfile host="app.diagrams.net" agent="Mozilla/5.0 (Windows NT 10.0; Win64; x64) AppleWebKit/537.36 (KHTML, like Gecko) Chrome/131.0.0.0 Safari/537.36" version="24.9.3">
  <diagram name="Сторінка-1" id="K6oVbcrKwIzUnzQfLgaQ">
    <mxGraphModel dx="944" dy="980" grid="1" gridSize="10" guides="1" tooltips="1" connect="1" arrows="1" fold="1" page="1" pageScale="1" pageWidth="827" pageHeight="1169" math="0" shadow="0">
      <root>
        <mxCell id="0" />
        <mxCell id="1" parent="0" />
        <mxCell id="x5qfvGAgGiGo_0kz7abX-3" value="" style="edgeStyle=orthogonalEdgeStyle;rounded=0;orthogonalLoop=1;jettySize=auto;html=1;" edge="1" parent="1" source="x5qfvGAgGiGo_0kz7abX-1" target="x5qfvGAgGiGo_0kz7abX-2">
          <mxGeometry relative="1" as="geometry" />
        </mxCell>
        <mxCell id="x5qfvGAgGiGo_0kz7abX-1" value="Start" style="ellipse;whiteSpace=wrap;html=1;" vertex="1" parent="1">
          <mxGeometry x="166.5" y="32" width="120" height="80" as="geometry" />
        </mxCell>
        <mxCell id="x5qfvGAgGiGo_0kz7abX-15" style="edgeStyle=orthogonalEdgeStyle;rounded=0;orthogonalLoop=1;jettySize=auto;html=1;" edge="1" parent="1" source="x5qfvGAgGiGo_0kz7abX-2" target="x5qfvGAgGiGo_0kz7abX-14">
          <mxGeometry relative="1" as="geometry" />
        </mxCell>
        <mxCell id="x5qfvGAgGiGo_0kz7abX-2" value="input N" style="shape=parallelogram;perimeter=parallelogramPerimeter;whiteSpace=wrap;html=1;fixedSize=1;" vertex="1" parent="1">
          <mxGeometry x="166.5" y="152" width="120" height="60" as="geometry" />
        </mxCell>
        <mxCell id="x5qfvGAgGiGo_0kz7abX-7" value="" style="edgeStyle=orthogonalEdgeStyle;rounded=0;orthogonalLoop=1;jettySize=auto;html=1;" edge="1" parent="1" source="x5qfvGAgGiGo_0kz7abX-4" target="x5qfvGAgGiGo_0kz7abX-6">
          <mxGeometry relative="1" as="geometry" />
        </mxCell>
        <mxCell id="x5qfvGAgGiGo_0kz7abX-4" value="i = 0" style="whiteSpace=wrap;html=1;" vertex="1" parent="1">
          <mxGeometry x="166.5" y="298" width="120" height="60" as="geometry" />
        </mxCell>
        <mxCell id="x5qfvGAgGiGo_0kz7abX-9" value="" style="edgeStyle=orthogonalEdgeStyle;rounded=0;orthogonalLoop=1;jettySize=auto;html=1;" edge="1" parent="1" source="x5qfvGAgGiGo_0kz7abX-6" target="x5qfvGAgGiGo_0kz7abX-8">
          <mxGeometry relative="1" as="geometry" />
        </mxCell>
        <mxCell id="x5qfvGAgGiGo_0kz7abX-25" style="edgeStyle=orthogonalEdgeStyle;rounded=0;orthogonalLoop=1;jettySize=auto;html=1;exitX=1;exitY=0.5;exitDx=0;exitDy=0;entryX=0.5;entryY=0;entryDx=0;entryDy=0;" edge="1" parent="1" source="x5qfvGAgGiGo_0kz7abX-6" target="x5qfvGAgGiGo_0kz7abX-10">
          <mxGeometry relative="1" as="geometry">
            <Array as="points">
              <mxPoint x="310" y="424" />
              <mxPoint x="310" y="22" />
              <mxPoint x="507" y="22" />
            </Array>
          </mxGeometry>
        </mxCell>
        <mxCell id="x5qfvGAgGiGo_0kz7abX-6" value="i &amp;lt; N" style="rhombus;whiteSpace=wrap;html=1;" vertex="1" parent="1">
          <mxGeometry x="186.5" y="384" width="80" height="80" as="geometry" />
        </mxCell>
        <mxCell id="x5qfvGAgGiGo_0kz7abX-28" style="edgeStyle=orthogonalEdgeStyle;rounded=0;orthogonalLoop=1;jettySize=auto;html=1;entryX=0;entryY=0.5;entryDx=0;entryDy=0;" edge="1" parent="1" source="x5qfvGAgGiGo_0kz7abX-8" target="x5qfvGAgGiGo_0kz7abX-6">
          <mxGeometry relative="1" as="geometry">
            <Array as="points">
              <mxPoint x="147" y="513" />
              <mxPoint x="147" y="424" />
            </Array>
          </mxGeometry>
        </mxCell>
        <mxCell id="x5qfvGAgGiGo_0kz7abX-8" value="input r[i]" style="shape=parallelogram;perimeter=parallelogramPerimeter;whiteSpace=wrap;html=1;fixedSize=1;" vertex="1" parent="1">
          <mxGeometry x="166.5" y="483" width="120" height="60" as="geometry" />
        </mxCell>
        <mxCell id="x5qfvGAgGiGo_0kz7abX-12" value="" style="edgeStyle=orthogonalEdgeStyle;rounded=0;orthogonalLoop=1;jettySize=auto;html=1;" edge="1" parent="1" source="x5qfvGAgGiGo_0kz7abX-10" target="x5qfvGAgGiGo_0kz7abX-11">
          <mxGeometry relative="1" as="geometry" />
        </mxCell>
        <mxCell id="x5qfvGAgGiGo_0kz7abX-27" style="edgeStyle=orthogonalEdgeStyle;rounded=0;orthogonalLoop=1;jettySize=auto;html=1;entryX=0;entryY=0.5;entryDx=0;entryDy=0;" edge="1" parent="1" source="x5qfvGAgGiGo_0kz7abX-10" target="x5qfvGAgGiGo_0kz7abX-17">
          <mxGeometry relative="1" as="geometry">
            <Array as="points">
              <mxPoint x="423" y="92" />
              <mxPoint x="423" y="307" />
            </Array>
          </mxGeometry>
        </mxCell>
        <mxCell id="x5qfvGAgGiGo_0kz7abX-10" value="if N == 1" style="rhombus;whiteSpace=wrap;html=1;" vertex="1" parent="1">
          <mxGeometry x="466.5" y="52" width="80" height="80" as="geometry" />
        </mxCell>
        <mxCell id="x5qfvGAgGiGo_0kz7abX-26" style="edgeStyle=orthogonalEdgeStyle;rounded=0;orthogonalLoop=1;jettySize=auto;html=1;entryX=1;entryY=0.5;entryDx=0;entryDy=0;" edge="1" parent="1" source="x5qfvGAgGiGo_0kz7abX-11" target="x5qfvGAgGiGo_0kz7abX-10">
          <mxGeometry relative="1" as="geometry">
            <Array as="points">
              <mxPoint x="600" y="200" />
              <mxPoint x="600" y="92" />
            </Array>
          </mxGeometry>
        </mxCell>
        <mxCell id="x5qfvGAgGiGo_0kz7abX-11" value="output 0" style="shape=parallelogram;perimeter=parallelogramPerimeter;whiteSpace=wrap;html=1;fixedSize=1;" vertex="1" parent="1">
          <mxGeometry x="446.5" y="167" width="120" height="60" as="geometry" />
        </mxCell>
        <mxCell id="x5qfvGAgGiGo_0kz7abX-16" style="edgeStyle=orthogonalEdgeStyle;rounded=0;orthogonalLoop=1;jettySize=auto;html=1;entryX=0.5;entryY=0;entryDx=0;entryDy=0;" edge="1" parent="1" source="x5qfvGAgGiGo_0kz7abX-14" target="x5qfvGAgGiGo_0kz7abX-4">
          <mxGeometry relative="1" as="geometry" />
        </mxCell>
        <mxCell id="x5qfvGAgGiGo_0kz7abX-14" value="vector&amp;lt;int&amp;gt; r(N)" style="rounded=0;whiteSpace=wrap;html=1;" vertex="1" parent="1">
          <mxGeometry x="166.5" y="233" width="120" height="40" as="geometry" />
        </mxCell>
        <mxCell id="x5qfvGAgGiGo_0kz7abX-19" value="" style="edgeStyle=orthogonalEdgeStyle;rounded=0;orthogonalLoop=1;jettySize=auto;html=1;" edge="1" parent="1" source="x5qfvGAgGiGo_0kz7abX-17" target="x5qfvGAgGiGo_0kz7abX-18">
          <mxGeometry relative="1" as="geometry" />
        </mxCell>
        <mxCell id="x5qfvGAgGiGo_0kz7abX-17" value="sort(r.begin(), r.end())" style="rounded=0;whiteSpace=wrap;html=1;" vertex="1" parent="1">
          <mxGeometry x="443.5" y="287" width="126" height="40" as="geometry" />
        </mxCell>
        <mxCell id="x5qfvGAgGiGo_0kz7abX-18" value="&lt;div&gt;original_tiredness = r[N-1] - r[0];&lt;/div&gt;&lt;div&gt;&amp;nbsp; &lt;span style=&quot;background-color: initial;&quot;&gt;tiredness_after_removing_min = r[N-1] - r[1];&lt;/span&gt;&lt;/div&gt;&lt;div&gt;&lt;span style=&quot;background-color: initial;&quot;&gt;&amp;nbsp;tiredness_after_removing_max = r[N-2] - r[0];&lt;/span&gt;&lt;/div&gt;" style="whiteSpace=wrap;html=1;rounded=0;" vertex="1" parent="1">
          <mxGeometry x="376.5" y="367" width="259" height="80" as="geometry" />
        </mxCell>
        <mxCell id="x5qfvGAgGiGo_0kz7abX-22" value="" style="edgeStyle=orthogonalEdgeStyle;rounded=0;orthogonalLoop=1;jettySize=auto;html=1;exitX=0.5;exitY=1;exitDx=0;exitDy=0;" edge="1" parent="1" source="x5qfvGAgGiGo_0kz7abX-20" target="x5qfvGAgGiGo_0kz7abX-21">
          <mxGeometry relative="1" as="geometry">
            <mxPoint x="506.5000000000002" y="537" as="sourcePoint" />
          </mxGeometry>
        </mxCell>
        <mxCell id="x5qfvGAgGiGo_0kz7abX-20" value="&#xa;&lt;span style=&quot;color: rgb(0, 0, 0); font-family: Helvetica; font-size: 12px; font-style: normal; font-variant-ligatures: normal; font-variant-caps: normal; font-weight: 400; letter-spacing: normal; orphans: 2; text-align: center; text-indent: 0px; text-transform: none; widows: 2; word-spacing: 0px; -webkit-text-stroke-width: 0px; white-space: normal; background-color: rgb(251, 251, 251); text-decoration-thickness: initial; text-decoration-style: initial; text-decoration-color: initial; display: inline !important; float: none;&quot;&gt;min_tiredness = min(tiredness_after_removing_min, tiredness_after_removing_max)&lt;/span&gt;&#xa;&#xa;" style="rounded=0;whiteSpace=wrap;html=1;" vertex="1" parent="1">
          <mxGeometry x="360" y="465" width="293" height="50" as="geometry" />
        </mxCell>
        <mxCell id="x5qfvGAgGiGo_0kz7abX-24" value="" style="edgeStyle=orthogonalEdgeStyle;rounded=0;orthogonalLoop=1;jettySize=auto;html=1;" edge="1" parent="1" source="x5qfvGAgGiGo_0kz7abX-21" target="x5qfvGAgGiGo_0kz7abX-23">
          <mxGeometry relative="1" as="geometry" />
        </mxCell>
        <mxCell id="x5qfvGAgGiGo_0kz7abX-21" value="output min_tiredness" style="shape=parallelogram;perimeter=parallelogramPerimeter;whiteSpace=wrap;html=1;fixedSize=1;rounded=0;" vertex="1" parent="1">
          <mxGeometry x="428.5" y="558" width="156" height="35" as="geometry" />
        </mxCell>
        <mxCell id="x5qfvGAgGiGo_0kz7abX-23" value="The end" style="ellipse;whiteSpace=wrap;html=1;rounded=0;" vertex="1" parent="1">
          <mxGeometry x="458.5" y="618" width="96" height="52.5" as="geometry" />
        </mxCell>
        <mxCell id="x5qfvGAgGiGo_0kz7abX-29" value="True" style="text;html=1;align=center;verticalAlign=middle;whiteSpace=wrap;rounded=0;" vertex="1" parent="1">
          <mxGeometry x="220" y="453" width="60" height="30" as="geometry" />
        </mxCell>
        <mxCell id="x5qfvGAgGiGo_0kz7abX-30" value="False" style="text;html=1;align=center;verticalAlign=middle;whiteSpace=wrap;rounded=0;" vertex="1" parent="1">
          <mxGeometry x="260" y="400" width="60" height="30" as="geometry" />
        </mxCell>
        <mxCell id="x5qfvGAgGiGo_0kz7abX-31" value="False" style="text;html=1;align=center;verticalAlign=middle;whiteSpace=wrap;rounded=0;" vertex="1" parent="1">
          <mxGeometry x="416" y="70" width="60" height="30" as="geometry" />
        </mxCell>
        <mxCell id="x5qfvGAgGiGo_0kz7abX-32" value="True" style="text;html=1;align=center;verticalAlign=middle;whiteSpace=wrap;rounded=0;" vertex="1" parent="1">
          <mxGeometry x="494.5" y="132" width="60" height="30" as="geometry" />
        </mxCell>
      </root>
    </mxGraphModel>
  </diagram>
</mxfile>
